<mxfile host="app.diagrams.net" modified="2022-03-15T19:52:11.954Z" agent="5.0 (Windows NT 10.0; Win64; x64) AppleWebKit/537.36 (KHTML, like Gecko) Chrome/99.0.4844.51 Safari/537.36" etag="Zzmk5MNEQ_xkyTo7XzJg" version="17.1.2" type="github">
  <diagram id="R2lEEEUBdFMjLlhIrx00" name="Page-1">
    <mxGraphModel dx="1038" dy="513" grid="1" gridSize="10" guides="1" tooltips="1" connect="1" arrows="1" fold="1" page="1" pageScale="1" pageWidth="850" pageHeight="1100" math="0" shadow="0" extFonts="Permanent Marker^https://fonts.googleapis.com/css?family=Permanent+Marker">
      <root>
        <mxCell id="0" />
        <mxCell id="1" parent="0" />
        <mxCell id="bIqCgflmKZWKociStXAB-1" value="IDENTIFICAMOS LAS ENTIDADES" style="text;html=1;align=center;verticalAlign=middle;resizable=0;points=[];autosize=1;strokeColor=none;fillColor=none;" vertex="1" parent="1">
          <mxGeometry x="30" y="30" width="210" height="20" as="geometry" />
        </mxCell>
        <mxCell id="bIqCgflmKZWKociStXAB-18" style="edgeStyle=orthogonalEdgeStyle;rounded=0;orthogonalLoop=1;jettySize=auto;html=1;exitX=1;exitY=0.5;exitDx=0;exitDy=0;entryX=0;entryY=0.5;entryDx=0;entryDy=0;endArrow=none;endFill=0;" edge="1" parent="1" source="bIqCgflmKZWKociStXAB-2" target="bIqCgflmKZWKociStXAB-6">
          <mxGeometry relative="1" as="geometry" />
        </mxCell>
        <mxCell id="bIqCgflmKZWKociStXAB-20" style="edgeStyle=orthogonalEdgeStyle;rounded=0;orthogonalLoop=1;jettySize=auto;html=1;exitX=0.5;exitY=1;exitDx=0;exitDy=0;endArrow=none;endFill=0;" edge="1" parent="1" source="bIqCgflmKZWKociStXAB-2" target="bIqCgflmKZWKociStXAB-17">
          <mxGeometry relative="1" as="geometry" />
        </mxCell>
        <mxCell id="bIqCgflmKZWKociStXAB-25" style="edgeStyle=none;rounded=0;orthogonalLoop=1;jettySize=auto;html=1;exitX=0.25;exitY=0;exitDx=0;exitDy=0;endArrow=none;endFill=0;" edge="1" parent="1" source="bIqCgflmKZWKociStXAB-2" target="bIqCgflmKZWKociStXAB-11">
          <mxGeometry relative="1" as="geometry" />
        </mxCell>
        <mxCell id="bIqCgflmKZWKociStXAB-26" style="edgeStyle=none;rounded=0;orthogonalLoop=1;jettySize=auto;html=1;exitX=0.5;exitY=0;exitDx=0;exitDy=0;entryX=0.32;entryY=0.965;entryDx=0;entryDy=0;entryPerimeter=0;endArrow=none;endFill=0;" edge="1" parent="1" source="bIqCgflmKZWKociStXAB-2" target="bIqCgflmKZWKociStXAB-12">
          <mxGeometry relative="1" as="geometry" />
        </mxCell>
        <mxCell id="bIqCgflmKZWKociStXAB-2" value="pelicula" style="rounded=1;arcSize=10;whiteSpace=wrap;html=1;align=center;" vertex="1" parent="1">
          <mxGeometry x="120" y="130" width="100" height="40" as="geometry" />
        </mxCell>
        <mxCell id="bIqCgflmKZWKociStXAB-3" value="director" style="rounded=1;arcSize=10;whiteSpace=wrap;html=1;align=center;" vertex="1" parent="1">
          <mxGeometry x="120" y="360" width="100" height="40" as="geometry" />
        </mxCell>
        <mxCell id="bIqCgflmKZWKociStXAB-22" style="edgeStyle=orthogonalEdgeStyle;rounded=0;orthogonalLoop=1;jettySize=auto;html=1;exitX=0.75;exitY=0;exitDx=0;exitDy=0;entryX=0.5;entryY=1;entryDx=0;entryDy=0;endArrow=none;endFill=0;" edge="1" parent="1" source="bIqCgflmKZWKociStXAB-4" target="bIqCgflmKZWKociStXAB-10">
          <mxGeometry relative="1" as="geometry" />
        </mxCell>
        <mxCell id="bIqCgflmKZWKociStXAB-23" style="rounded=0;orthogonalLoop=1;jettySize=auto;html=1;exitX=1;exitY=0.25;exitDx=0;exitDy=0;entryX=0.04;entryY=0.725;entryDx=0;entryDy=0;entryPerimeter=0;endArrow=none;endFill=0;" edge="1" parent="1" source="bIqCgflmKZWKociStXAB-4" target="bIqCgflmKZWKociStXAB-7">
          <mxGeometry relative="1" as="geometry" />
        </mxCell>
        <mxCell id="bIqCgflmKZWKociStXAB-24" style="edgeStyle=none;rounded=0;orthogonalLoop=1;jettySize=auto;html=1;exitX=1;exitY=0.75;exitDx=0;exitDy=0;endArrow=none;endFill=0;" edge="1" parent="1" source="bIqCgflmKZWKociStXAB-4" target="bIqCgflmKZWKociStXAB-8">
          <mxGeometry relative="1" as="geometry" />
        </mxCell>
        <mxCell id="bIqCgflmKZWKociStXAB-4" value="cliente" style="rounded=1;arcSize=10;whiteSpace=wrap;html=1;align=center;" vertex="1" parent="1">
          <mxGeometry x="580" y="130" width="100" height="40" as="geometry" />
        </mxCell>
        <mxCell id="bIqCgflmKZWKociStXAB-19" style="edgeStyle=orthogonalEdgeStyle;rounded=0;orthogonalLoop=1;jettySize=auto;html=1;exitX=1;exitY=0.5;exitDx=0;exitDy=0;endArrow=none;endFill=0;" edge="1" parent="1" source="bIqCgflmKZWKociStXAB-6" target="bIqCgflmKZWKociStXAB-4">
          <mxGeometry relative="1" as="geometry" />
        </mxCell>
        <mxCell id="bIqCgflmKZWKociStXAB-6" value="alquila" style="shape=rhombus;perimeter=rhombusPerimeter;whiteSpace=wrap;html=1;align=center;" vertex="1" parent="1">
          <mxGeometry x="350" y="120" width="120" height="60" as="geometry" />
        </mxCell>
        <mxCell id="bIqCgflmKZWKociStXAB-7" value="nombre" style="ellipse;whiteSpace=wrap;html=1;align=center;" vertex="1" parent="1">
          <mxGeometry x="710" y="100" width="100" height="40" as="geometry" />
        </mxCell>
        <mxCell id="bIqCgflmKZWKociStXAB-8" value="apellido" style="ellipse;whiteSpace=wrap;html=1;align=center;" vertex="1" parent="1">
          <mxGeometry x="720" y="160" width="100" height="40" as="geometry" />
        </mxCell>
        <mxCell id="bIqCgflmKZWKociStXAB-10" value="rut" style="ellipse;whiteSpace=wrap;html=1;align=center;fontStyle=4;fillColor=#d5e8d4;strokeColor=#82b366;" vertex="1" parent="1">
          <mxGeometry x="610" y="70" width="100" height="40" as="geometry" />
        </mxCell>
        <mxCell id="bIqCgflmKZWKociStXAB-11" value="codigo" style="ellipse;whiteSpace=wrap;html=1;align=center;fontStyle=4;" vertex="1" parent="1">
          <mxGeometry x="50" y="60" width="100" height="40" as="geometry" />
        </mxCell>
        <mxCell id="bIqCgflmKZWKociStXAB-12" value="titulo" style="ellipse;whiteSpace=wrap;html=1;align=center;" vertex="1" parent="1">
          <mxGeometry x="170" y="60" width="100" height="40" as="geometry" />
        </mxCell>
        <mxCell id="bIqCgflmKZWKociStXAB-33" style="edgeStyle=none;rounded=0;orthogonalLoop=1;jettySize=auto;html=1;exitX=0.5;exitY=0;exitDx=0;exitDy=0;endArrow=none;endFill=0;" edge="1" parent="1" source="bIqCgflmKZWKociStXAB-13" target="bIqCgflmKZWKociStXAB-3">
          <mxGeometry relative="1" as="geometry" />
        </mxCell>
        <mxCell id="bIqCgflmKZWKociStXAB-13" value="nombre" style="ellipse;whiteSpace=wrap;html=1;align=center;" vertex="1" parent="1">
          <mxGeometry x="85" y="430" width="100" height="40" as="geometry" />
        </mxCell>
        <mxCell id="bIqCgflmKZWKociStXAB-34" style="edgeStyle=none;rounded=0;orthogonalLoop=1;jettySize=auto;html=1;entryX=0.676;entryY=0.985;entryDx=0;entryDy=0;entryPerimeter=0;endArrow=none;endFill=0;" edge="1" parent="1" source="bIqCgflmKZWKociStXAB-15" target="bIqCgflmKZWKociStXAB-3">
          <mxGeometry relative="1" as="geometry" />
        </mxCell>
        <mxCell id="bIqCgflmKZWKociStXAB-15" value="tipo" style="ellipse;whiteSpace=wrap;html=1;align=center;fillColor=#d5e8d4;strokeColor=#82b366;" vertex="1" parent="1">
          <mxGeometry x="220" y="410" width="100" height="40" as="geometry" />
        </mxCell>
        <mxCell id="bIqCgflmKZWKociStXAB-35" style="edgeStyle=none;rounded=0;orthogonalLoop=1;jettySize=auto;html=1;exitX=1;exitY=0.5;exitDx=0;exitDy=0;endArrow=none;endFill=0;" edge="1" parent="1" source="bIqCgflmKZWKociStXAB-16" target="bIqCgflmKZWKociStXAB-3">
          <mxGeometry relative="1" as="geometry" />
        </mxCell>
        <mxCell id="bIqCgflmKZWKociStXAB-16" value="codigo" style="ellipse;whiteSpace=wrap;html=1;align=center;fontStyle=4;fillColor=#d5e8d4;strokeColor=#82b366;" vertex="1" parent="1">
          <mxGeometry x="10" y="370" width="100" height="40" as="geometry" />
        </mxCell>
        <mxCell id="bIqCgflmKZWKociStXAB-21" style="edgeStyle=orthogonalEdgeStyle;rounded=0;orthogonalLoop=1;jettySize=auto;html=1;exitX=0.5;exitY=1;exitDx=0;exitDy=0;entryX=0.5;entryY=0;entryDx=0;entryDy=0;endArrow=none;endFill=0;" edge="1" parent="1" source="bIqCgflmKZWKociStXAB-17" target="bIqCgflmKZWKociStXAB-3">
          <mxGeometry relative="1" as="geometry" />
        </mxCell>
        <mxCell id="bIqCgflmKZWKociStXAB-17" value="tiene" style="shape=rhombus;perimeter=rhombusPerimeter;whiteSpace=wrap;html=1;align=center;" vertex="1" parent="1">
          <mxGeometry x="110" y="230" width="120" height="60" as="geometry" />
        </mxCell>
        <mxCell id="bIqCgflmKZWKociStXAB-27" value="(1,N)" style="text;html=1;align=center;verticalAlign=middle;resizable=0;points=[];autosize=1;strokeColor=none;fillColor=none;" vertex="1" parent="1">
          <mxGeometry x="220" y="130" width="40" height="20" as="geometry" />
        </mxCell>
        <mxCell id="bIqCgflmKZWKociStXAB-28" value="(1,N)" style="text;html=1;align=center;verticalAlign=middle;resizable=0;points=[];autosize=1;strokeColor=none;fillColor=none;" vertex="1" parent="1">
          <mxGeometry x="530" y="130" width="40" height="20" as="geometry" />
        </mxCell>
        <mxCell id="bIqCgflmKZWKociStXAB-29" value="(N,N)" style="text;html=1;align=center;verticalAlign=middle;resizable=0;points=[];autosize=1;strokeColor=none;fillColor=none;" vertex="1" parent="1">
          <mxGeometry x="390" y="90" width="40" height="20" as="geometry" />
        </mxCell>
        <mxCell id="bIqCgflmKZWKociStXAB-30" value="(1,N)" style="text;html=1;align=center;verticalAlign=middle;resizable=0;points=[];autosize=1;strokeColor=none;fillColor=none;" vertex="1" parent="1">
          <mxGeometry x="160" y="170" width="40" height="20" as="geometry" />
        </mxCell>
        <mxCell id="bIqCgflmKZWKociStXAB-31" value="(1,N)" style="text;html=1;align=center;verticalAlign=middle;resizable=0;points=[];autosize=1;strokeColor=none;fillColor=none;" vertex="1" parent="1">
          <mxGeometry x="170" y="340" width="40" height="20" as="geometry" />
        </mxCell>
        <mxCell id="bIqCgflmKZWKociStXAB-32" value="(N,N)" style="text;html=1;align=center;verticalAlign=middle;resizable=0;points=[];autosize=1;strokeColor=none;fillColor=none;" vertex="1" parent="1">
          <mxGeometry x="230" y="250" width="40" height="20" as="geometry" />
        </mxCell>
      </root>
    </mxGraphModel>
  </diagram>
</mxfile>
